<?xml version="1.0" standalone="no"?>
<!DOCTYPE svg PUBLIC "-//W3C//DTD SVG 20010904//EN"
 "http://www.w3.org/TR/2001/REC-SVG-20010904/DTD/svg10.dtd">
<svg version="1.0" xmlns="http://www.w3.org/2000/svg"
 width="145.000000pt" height="145.000000pt" viewBox="0 0 145.000000 145.000000"
 preserveAspectRatio="xMidYMid meet">

<g transform="translate(0.000000,145.000000) scale(0.100000,-0.100000)"
fill="#000000" stroke="none">
<path d="M570 1425 c-36 -8 -108 -36 -160 -61 -81 -40 -109 -60 -185 -138 -73
-73 -99 -107 -132 -176 -59 -121 -76 -194 -76 -325 0 -194 60 -347 190 -485
155 -165 338 -239 562 -227 181 9 331 77 461 208 87 87 140 172 177 284 24 72
27 95 27 220 0 125 -3 148 -27 220 -38 114 -91 198 -177 285 -138 138 -283
200 -480 206 -75 2 -138 -2 -180 -11z m350 -104 c73 -25 170 -80 169 -96 0 -5
-22 -28 -49 -50 -29 -24 -49 -49 -49 -61 -1 -11 -7 -42 -15 -67 -20 -68 -2
-62 107 33 105 91 96 92 167 -16 73 -111 95 -193 95 -344 -1 -110 -4 -134 -27
-198 -14 -40 -34 -84 -42 -97 l-16 -25 -471 0 c-259 0 -469 4 -467 9 2 4 48
47 103 95 55 49 100 91 100 94 -1 13 -39 82 -45 82 -3 0 -70 -56 -148 -125
-79 -69 -147 -125 -152 -125 -9 0 -39 75 -61 150 -7 25 -12 92 -12 150 0 88 5
118 27 185 72 211 227 358 440 416 96 26 253 21 346 -10z m-92 -984 c2 -10 -3
-17 -12 -17 -12 0 -16 -10 -16 -40 0 -33 -3 -40 -20 -40 -17 0 -20 7 -20 40 0
29 -4 40 -15 40 -16 0 -20 21 -8 34 4 4 26 6 48 4 28 -3 41 -9 43 -21z m90 14
c24 -2 6 -26 -24 -32 l-29 -7 28 -1 c17 -1 27 -7 27 -16 0 -9 -10 -15 -27 -16
l-28 -1 29 -7 c49 -10 44 -31 -8 -31 l-46 0 0 53 c0 62 4 69 39 63 14 -2 32
-5 39 -5z m132 -57 c0 -45 -3 -54 -18 -54 -9 0 -25 12 -34 28 l-17 27 -1 -27
c0 -22 -5 -28 -21 -28 -19 0 -21 4 -15 31 3 17 6 42 6 55 0 32 19 30 47 -3
l22 -28 1 26 c0 14 3 29 6 32 15 15 24 -8 24 -59z m-550 41 c-3 -5 -16 -10
-30 -10 -20 0 -26 -6 -28 -27 -3 -24 0 -28 20 -27 13 0 17 3 11 6 -23 9 -14
33 12 33 21 0 25 -5 25 -30 0 -35 -27 -54 -65 -44 -74 18 -52 118 24 112 20
-2 34 -7 31 -13z m60 -25 c0 -36 3 -40 25 -40 16 0 25 -6 25 -15 0 -11 -11
-15 -40 -15 l-40 0 0 55 c0 42 3 55 15 55 11 0 15 -11 15 -40z m92 3 c2 -27 8
-39 21 -41 14 -3 17 4 17 37 0 30 4 41 15 41 11 0 15 -12 15 -45 0 -36 -4 -47
-25 -61 -23 -15 -27 -15 -50 0 -21 14 -25 25 -25 61 0 33 4 45 14 45 10 0 16
-13 18 -37z m-34 -130 c2 -9 -7 -13 -27 -13 -17 0 -31 -4 -31 -10 0 -5 11 -10
25 -10 16 0 25 -6 25 -15 0 -9 -9 -15 -25 -15 -15 0 -25 -6 -25 -14 0 -21 -21
-31 -31 -15 -10 17 -12 93 -2 103 12 11 86 2 91 -11z m96 1 c18 -18 21 -40 6
-49 -6 -3 -7 -17 -4 -31 4 -17 2 -24 -9 -24 -8 0 -17 7 -21 15 -7 19 -26 19
-26 0 0 -8 -7 -15 -15 -15 -12 0 -15 13 -15 60 l0 60 34 0 c19 0 42 -7 50 -16z
m116 1 c0 -10 -11 -16 -32 -16 -31 -2 -31 -2 -5 -6 18 -3 27 -10 27 -23 0 -13
-9 -20 -27 -23 -26 -4 -26 -4 5 -6 21 0 32 -6 32 -16 0 -11 -12 -15 -45 -15
l-45 0 0 60 0 60 45 0 c33 0 45 -4 45 -15z m105 0 c0 -5 -13 -12 -30 -14 -29
-4 -30 -4 -5 -10 14 -4 25 -13 25 -21 0 -8 -11 -17 -25 -21 l-25 -7 28 -1 c17
-1 27 -7 27 -16 0 -22 -76 -21 -84 1 -8 22 -8 89 1 98 11 10 88 3 88 -9z"/>
<path d="M707 1246 c-29 -44 -40 -108 -27 -157 7 -24 18 -52 26 -63 8 -11 14
-32 14 -46 -1 -22 -3 -20 -20 15 -26 53 -81 100 -133 113 -23 6 -43 9 -45 7
-2 -1 2 -22 8 -46 17 -61 82 -124 143 -140 l47 -11 0 -71 0 -71 -26 53 c-30
59 -80 98 -138 108 -44 7 -45 -2 -12 -74 28 -58 80 -100 139 -109 l37 -7 -1
-71 0 -71 -18 40 c-23 52 -80 101 -132 115 -23 6 -43 9 -46 7 -12 -12 22 -92
53 -126 33 -38 61 -53 116 -65 24 -6 27 -11 31 -59 l3 -52 2 52 c2 51 3 52 37
59 82 15 165 102 165 172 0 19 -4 21 -27 16 -54 -12 -116 -58 -140 -103 -13
-25 -25 -47 -28 -49 -3 -3 -5 27 -5 66 0 66 2 72 20 72 30 0 91 27 118 53 29
27 62 89 62 117 0 26 -28 26 -78 1 -47 -24 -77 -56 -97 -104 -8 -20 -17 -37
-20 -37 -3 0 -5 31 -5 69 l0 69 48 12 c26 6 61 22 78 35 34 26 74 98 74 133 0
19 -4 21 -27 16 -70 -17 -137 -74 -148 -126 -4 -15 -11 -28 -16 -28 -17 0 -9
40 13 70 40 55 34 183 -11 224 -17 16 -19 15 -34 -8z"/>
<path d="M660 160 c0 -5 7 -10 15 -10 8 0 15 5 15 10 0 6 -7 10 -15 10 -8 0
-15 -4 -15 -10z"/>
</g>
</svg>
