<?xml version="1.0" standalone="no"?>
<!DOCTYPE svg PUBLIC "-//W3C//DTD SVG 20010904//EN"
 "http://www.w3.org/TR/2001/REC-SVG-20010904/DTD/svg10.dtd">
<svg version="1.0" xmlns="http://www.w3.org/2000/svg"
 width="144.000000pt" height="144.000000pt" viewBox="0 0 144.000000 144.000000"
 preserveAspectRatio="xMidYMid meet">

<g transform="translate(0.000000,144.000000) scale(0.100000,-0.100000)"
fill="#000000" stroke="none">
<path d="M540 1410 c-264 -70 -455 -265 -521 -530 -41 -164 -13 -369 72 -517
93 -163 260 -292 435 -337 84 -22 294 -22 378 0 134 35 289 137 372 247 304
403 134 963 -341 1123 -111 37 -285 44 -395 14z m335 -45 c33 -8 98 -34 145
-57 164 -79 299 -250 346 -438 21 -82 21 -227 0 -311 -60 -238 -252 -432 -491
-494 -78 -21 -242 -21 -320 0 -186 48 -354 182 -433 345 -23 47 -49 112 -57
145 -19 77 -19 243 0 320 47 184 182 354 345 433 47 23 110 48 140 56 74 20
250 20 325 1z"/>
<path d="M421 1132 c-9 -17 -8 -40 4 -105 18 -93 31 -301 21 -341 -15 -60
-163 -89 -233 -46 -28 16 -33 26 -34 57 0 36 -1 36 -10 13 -14 -34 4 -93 37
-119 35 -27 88 -36 134 -22 43 13 116 86 126 127 4 15 3 91 -3 168 -5 78 -6
159 -2 181 5 29 3 49 -11 74 -17 34 -18 34 -29 13z"/>
<path d="M786 1033 c-3 -10 -15 -63 -27 -118 -11 -55 -32 -122 -47 -148 -34
-63 -109 -137 -179 -176 l-58 -32 45 6 c61 8 139 54 172 101 16 23 38 80 53
139 42 163 42 163 55 -4 16 -218 54 -242 274 -170 49 16 102 29 119 29 29 0
56 22 57 48 0 7 -13 12 -33 12 -20 0 -65 17 -110 40 -92 49 -136 52 -166 14
-23 -29 -28 -49 -9 -38 33 21 158 -12 158 -42 0 -20 -55 -42 -122 -49 -126
-14 -146 16 -158 241 -5 86 -11 159 -14 161 -2 2 -7 -4 -10 -14z"/>
<path d="M490 981 c0 -41 19 -68 58 -84 22 -9 52 -31 66 -49 l26 -33 -15 45
c-17 48 -63 103 -107 126 -26 13 -28 13 -28 -5z"/>
<path d="M300 400 c0 -40 4 -70 10 -70 6 0 10 14 10 30 0 34 17 45 55 36 20
-5 25 -13 25 -36 0 -17 5 -30 10 -30 6 0 10 30 10 70 0 68 -15 98 -22 43 -3
-24 -8 -28 -40 -31 -36 -3 -38 -2 -38 27 0 17 -4 31 -10 31 -6 0 -10 -30 -10
-70z"/>
<path d="M511 409 c-24 -71 -25 -79 -11 -79 6 0 10 6 10 14 0 16 41 29 64 20
9 -3 16 -12 16 -20 0 -8 6 -14 14 -14 25 0 -25 134 -51 138 -17 3 -24 -7 -42
-59z m58 11 c8 -25 7 -32 -4 -37 -8 -3 -22 -3 -30 0 -11 5 -12 12 -4 37 6 16
15 30 19 30 4 0 13 -14 19 -30z"/>
<path d="M680 400 l0 -70 48 1 c44 2 45 2 12 8 l-35 6 -3 63 c-4 85 -22 79
-22 -8z"/>
<path d="M875 458 c-45 -122 -48 -149 -12 -108 22 26 52 25 71 -2 26 -37 29
-12 6 56 -17 51 -26 66 -41 66 -11 0 -22 -6 -24 -12z m39 -24 c13 -35 7 -54
-19 -54 -28 0 -30 6 -15 44 11 29 25 34 34 10z"/>
<path d="M1040 400 l0 -70 48 1 c27 1 37 4 22 6 -41 8 -50 22 -50 79 0 30 -4
54 -10 54 -6 0 -10 -30 -10 -70z"/>
</g>
</svg>
