<?xml version="1.0" standalone="no"?>
<!DOCTYPE svg PUBLIC "-//W3C//DTD SVG 20010904//EN"
 "http://www.w3.org/TR/2001/REC-SVG-20010904/DTD/svg10.dtd">
<svg version="1.0" xmlns="http://www.w3.org/2000/svg"
 width="148.000000pt" height="145.000000pt" viewBox="0 0 148.000000 145.000000"
 preserveAspectRatio="xMidYMid meet">

<g transform="translate(0.000000,145.000000) scale(0.100000,-0.100000)"
fill="#000000" stroke="none">
<path d="M552 1420 c-331 -87 -563 -409 -539 -751 21 -285 203 -526 478 -631
81 -31 89 -32 239 -33 137 0 163 3 225 24 234 79 402 252 477 491 19 63 23 95
22 205 -1 111 -4 141 -26 207 -41 122 -91 204 -187 298 -99 99 -202 158 -327
190 -102 26 -261 26 -362 0z m348 -67 c421 -109 620 -595 398 -971 -18 -31
-65 -89 -104 -128 -115 -116 -298 -193 -459 -193 -161 0 -344 77 -459 193 -81
82 -126 153 -164 258 -23 64 -26 88 -27 203 0 111 3 140 24 200 113 337 454
526 791 438z"/>
<path d="M480 720 l0 -360 65 0 65 0 2 162 3 162 145 -162 145 -161 83 -1 c56
0 81 3 77 11 -4 5 -72 83 -152 172 -80 89 -148 167 -150 174 -3 7 53 81 124
165 70 84 136 163 146 175 l18 23 -83 -1 -83 0 -130 -159 c-71 -88 -133 -160
-137 -160 -5 0 -8 72 -8 160 l0 160 -65 0 -65 0 0 -360z"/>
</g>
</svg>
