<svg version="1.0" xmlns="http://www.w3.org/2000/svg" width="184" height="194.667" viewBox="0 0 138 146"><path d="M80.2 9.1c.2 5.6.7 7.4 1.8 7.6 2 .4 9.6-10.5 8.3-11.8-.6-.6-2 .6-3.9 3.2l-2.9 4.3-.5-4.9c-.3-2.7-1.1-5-1.8-5.3-1-.3-1.2 1.3-1 6.9zM92.3 12.2c-1.5 2.9-2.9 5.6-3.1 6-.4.7 7 4.8 8.8 4.8 2.1 0 .9-1.8-2-3-3-1.2-3.9-3.3-2-4.5.6-.4 2.2 0 3.5.9 1.4.9 2.6 1.2 3 .6.3-.5-.8-1.6-2.4-2.5-2-1-2.8-2-2.5-3 .7-1.8 1.2-1.8 4.4 0 3 1.7 4 1.8 4 .5 0-.8-7-5-8.4-5-.3 0-1.8 2.4-3.3 5.2zM104.5 18.5c-1.5 1.4-2.5 3.6-2.5 5.3 0 2.9 2.6 6.2 4.8 6.2.7 0 1.2.4 1.2 1 0 1.9 1.9 1 3.8-1.8l2-2.7-2.6-1.9-2.5-1.9.7 2.6c.5 2.3.3 2.7-1.3 2.7-2.7 0-4.5-3.4-3.2-5.8 2.5-4.7 7.7-5.3 8.3-1 .4 2.8 2.8 3.6 2.8.9 0-2.9-3.5-6.1-6.5-6.1-1.4 0-3.7 1.1-5 2.5zM52 22C32.9 25.6 16.6 37.9 8 55.3-3.9 79.2.6 106.6 19.5 125.5c27.2 27.2 72.1 22.9 93.4-9C120 105.8 123 95.9 123 82.8c0-18-5.3-31.2-17.5-43.4-7.9-7.9-14.9-12.2-25.1-15.4-7.7-2.4-21.4-3.4-28.4-2zM29.2 54c11.9 3.6 23.3 12.8 30 24.1l3.4 5.6 2.8-5.2c5.8-11.2 19.5-21.7 33-25.2 6.6-1.8 6.8-1.8 8.2.2 2.7 3.6 3.9 9.9 3.9 20.5 0 9-.4 11.5-2.8 18-4.8 13.1-15 24.4-27.2 30.1-7.4 3.5-14.5 5.2-14.5 3.5 0-.6 2-4.6 4.5-8.8 4.8-8.3 4.4-8 18.4-11.5 3.6-.9 5.5-3.3 2.6-3.3-.9 0-4.2.7-7.2 1.6-3 .9-5.7 1.3-6 1-.3-.3 1.4-3.9 3.8-8l4.4-7.5 6.8-1.7c6.3-1.5 8.6-2.8 7.4-4.1-.3-.3-2.9 0-5.7.7-2.8.7-5.3 1.1-5.5.8-.2-.2 1.6-3.8 4.1-8.1 2.5-4.3 4.2-8.2 3.9-8.7-1-1.7-2.2-.3-6.5 7.5-3.9 7-6 9.2-6 6.2 0-3.2-2.2-8.7-3.5-8.7-1.9 0-1.9 0 .5 8l2 6.8-4.1 7.1c-2.2 3.9-4.4 7.3-4.9 7.6-.4.2-1.5-2.3-2.4-5.8-2.5-9.2-2.5-9.2-3.7-8-.8.8-.4 3.7 1.2 10l2.3 9-4.9 8.6c-2.7 4.8-5 8.5-5.3 8.3-1.7-1.7-9.2-16.4-9.2-18 0-1.1.9-5.3 2.1-9.3 1.9-6.8 1.9-10-.1-8.8-.4.3-1.6 3.6-2.5 7.5-.9 3.8-2 7-2.4 7-.3 0-2.5-3.4-4.9-7.6l-4.3-7.5 2-6.9c1-3.8 1.6-7.1 1.3-7.4-1.3-1.4-2.2-.3-3.3 3.9-.6 2.5-1.5 4.8-1.9 5-.5.3-2.9-3.1-5.5-7.6-3.1-5.4-5-7.8-5.7-7.1-.7.7.5 3.6 3.5 8.8 2.5 4.3 4.4 8 4.2 8.2-.2.3-2.7-.1-5.5-.8-2.8-.7-5.4-1-5.7-.7-1.2 1.2 1 2.6 5.9 3.7 2.9.7 6.1 1.7 7 2.1 1.9 1 10.3 14.8 9.5 15.6-.3.3-3-.2-6-1.1-6.5-1.9-9-2-8.5-.4.2.6 4.2 2.2 8.8 3.4 9.3 2.6 9.5 2.7 15.4 13.5l3.8 7.1-3.3-.7C36.2 122 19.8 105.8 15 85.1c-1.6-6.8-.8-21.9 1.5-28.4 2-5.5 2.9-5.7 12.7-2.7zM122 28.8c-7.8 2.6-11.9 4.5-11.4 5.3.3.5 1.4.7 2.3.4 2.3-.7 5.2 2.5 4.9 5.3-.5 4 1.4 2.6 4.8-3.4 2.7-4.8 3.2-6.4 2.2-7.1-.7-.6-2-.8-2.8-.5zm-1 5.7c-1 1.2-1.6 1.3-2.7.3-1.2-1-1.1-1.3.9-2.4 2.6-1.4 3.7-.1 1.8 2.1zM125.3 41.1c-2.9 1.7-5.3 3.5-5.3 4 0 1.2.6 1.1 4.1-.7 4.1-2.1 4.6-1.2 2 3.1-4.2 7.1-2.5 8.1 5.7 3.5 6-3.5 6.2-6.1.1-3-2.1 1.1-3.9 1.7-3.9 1.4 0-.4 1.1-2.7 2.6-5.1 2.2-3.9 2.5-6.3.6-6.3-.4 0-3.1 1.4-5.9 3.1z"/></svg>